<svg height="512pt" viewBox="0 0 512 512" width="512pt" xmlns="http://www.w3.org/2000/svg"><path d="m504.5 0h-24.5c-4.144531 0-7.5 3.359375-7.5 7.5v185.597656h-9.605469c8.726563-13.589844 7.679688-37.640625-10.4375-50.617187-4.878906-3.496094-7-9.78125-5.148437-15.527344 1.183594-3.695313 3.191406-5.589844 6.0625-7.75 7.863281-5.980469 12.765625-14.613281 14.007812-22.1875.835938-4.234375.617188-7.230469.652344-8.195313 0-23.230468-13.582031-43.351562-33.222656-52.835937v-18.984375c0-9.375-7.625-17-17-17h-16.820313c-9.375 0-17 7.625-17 17v18.984375c-10.84375 5.238281-19.839843 13.714844-25.722656 24.167969-5.882813-10.453125-14.878906-18.929688-25.722656-24.167969v-18.984375c0-9.375-7.628907-17-17-17h-16.820313c-9.375 0-17 7.625-17 17v18.984375c-10.84375 5.238281-19.839844 13.714844-25.722656 24.164063-5.882812-10.449219-14.878906-18.925782-25.722656-24.164063v-18.984375c0-9.375-7.625-17-17-17h-16.820313c-9.375 0-17 7.625-17 17v18.976562c-.96875.464844-1.921875.957032-2.863281 1.476563-3.628906 2-4.945312 6.5625-2.945312 10.191406 1.996093 3.625 6.5625 4.945313 10.1875 2.945313 28.578124-15.761719 64.273437 4.769531 64.660156 37.710937h-87.257813c.089844-7.304687 2.019531-14.503906 5.597657-20.855469 2.03125-3.609374.753906-8.183593-2.855469-10.214843-3.519531-1.984375-8.128907-.863281-10.25 2.914062-5.882813-10.449219-14.875-18.925781-25.714844-24.160156v-18.984375c0-9.375-7.628906-17-17-17h-16.824219c-9.375 0-17 7.625-17 17v18.984375c-34.015625 16.425781-45.269531 63.578125-18.046875 83.605469 5.125 3.765625 6.910157 9.015625 5.988281 14.066406-1.203124 6.570312-6.613281 9.566406-5.820312 8.988281-17.816406 12.976563-15.089844 31.769531-15.34375 32.925781 0 6.449219 1.886719 12.464844 5.136719 17.527344h-9.605469v-185.597656c0-4.140625-3.359375-7.5-7.5-7.5h-24.5c-4.140625 0-7.5 3.359375-7.5 7.5v496.800781c0 4.140625 3.359375 7.5 7.5 7.5h497c4.144531 0 7.5-3.359375 7.5-7.5v-496.800781c0-4.140625-3.355469-7.5-7.5-7.5zm-310.042969 31.113281v-14.113281c0-1.101562.898438-2 2-2h16.820313c1.105468 0 2 .898438 2 2v14.113281c-3.914063-.707031-7.820313-.988281-11.554688-.914062-3.125.0625-6.21875.367187-9.265625.914062zm-66.695312 112.6875h-50.320313c5.863282-12.03125 3.238282-26.566406-9.847656-36.625-1.496094-1.152343-2.824219-2.457031-3.964844-3.875h77.945313c-1.320313 1.644531-2.875 3.109375-4.644531 4.382813-11.460938 8.207031-15.324219 23.441406-9.167969 36.117187zm17.902343-23.921875c3.203126-2.296875 5.898438-4.953125 8.070313-7.773437 2.183594 2.832031 4.769531 5.34375 7.671875 7.484375 8.617188 6.332031 7.960938 17.339844.078125 23.125-2.976563 2.179687-5.578125 4.738281-7.75 7.570312-2.25-2.9375-4.960937-5.578125-8.070313-7.804687-7.824218-5.605469-7.667968-17.113281 0-22.601563zm15.570313 55.691406c.246094-1.863281-1.351563-9.289062 4.855469-16.769531h77.554687c6.195313 7.464844 4.613281 14.933594 4.855469 16.769531 0 9.664063-7.863281 17.527344-17.527344 17.527344h-52.210937c-9.664063 0-17.527344-7.863281-17.527344-17.527344zm204.835937-32.898437c-3 2.1875-5.621093 4.761719-7.804687 7.613281-4.046875-5.285156-7.824219-7.484375-9.210937-8.71875-6.667969-5.929687-6.109376-16.496094 1.140624-21.6875h-.003906c3.195313-2.289062 5.890625-4.941406 8.074219-7.773437 3.757813 4.875 7.976563 7.703125 7.855469 7.613281 4.042968 2.9375 6.03125 7.085938 6.03125 11.460938 0 7.796874-6.183594 11.566406-6.082032 11.492187zm-24.613281-34.988281c-11.453125 8.207031-15.324219 23.449218-9.164062 36.117187h-50.320313c5.613282-11.542969 3.53125-26.699219-9.492187-36.355469-1.589844-1.179687-3.054688-2.566406-4.320313-4.144531h77.945313c-1.34375 1.671875-2.910157 3.136719-4.648438 4.382813zm-93.527343 12.195312c3.199218-2.292968 5.894531-4.945312 8.070312-7.773437 6.492188 8.425781 13.886719 9.277343 13.886719 19.074219 0 4.203124-1.847657 8.40625-6.074219 11.488281-2.910156 2.121093-5.558594 4.675781-7.8125 7.617187-2.25-2.9375-4.960938-5.578125-8.070312-7.804687-7.789063-5.582031-7.6875-17.097657 0-22.601563zm15.570312 55.691406c.246094-1.863281-1.351562-9.289062 4.855469-16.769531h77.554687c6.203125 7.476563 4.609375 14.925781 4.855469 16.769531 0 9.664063-7.863281 17.527344-17.53125 17.527344h-52.207031c-9.664063 0-17.527344-7.863281-17.527344-17.527344zm102.265625 0c.246094-1.855468-1.351563-9.289062 4.855469-16.769531h77.554687c6.203125 7.476563 4.609375 14.925781 4.855469 16.769531 0 9.664063-7.863281 17.527344-17.527344 17.527344h-52.207031c-9.667969 0-17.53125-7.863281-17.53125-17.527344zm33.222656-144.457031v-14.113281c0-1.101562.894531-2 2-2h16.820313c1.101562 0 2 .898438 2 2v14.113281c-6.753906-1.214843-13.777344-1.234375-20.539063-.050781-.09375.015625-.1875.035156-.28125.050781zm13.234375 14.164063c22.578125 1.453125 40.535156 20.148437 40.804688 43.023437h-25.71875c-4.144532 0-7.5 3.359375-7.5 7.5s3.355468 7.5 7.5 7.5h21.0625c-2.394532 2.984375-4.558594 4.246094-6.027344 5.4375-10.199219 8.28125-13.78125 22.730469-7.785156 35.0625h-50.320313c5.667969-11.808593 3.464844-26.671875-9.542969-36.394531-1.660156-1.234375-3.085937-2.628906-4.269531-4.105469h28.882813c4.144531 0 7.5-3.359375 7.5-7.5s-3.355469-7.5-7.5-7.5h-33.539063c.292969-24.8125 21.34375-44.605469 46.453125-43.023437zm-115.5-14.164063v-14.113281c0-1.101562.894532-2 2-2h16.820313c1.101562 0 2 .898438 2 2v14.113281c-6.964844-1.253906-14.0625-1.191406-20.464844-.0625-.117187.019531-.238281.042969-.355469.0625zm13.234375 14.164063c22.578125 1.453125 40.535157 20.148437 40.804688 43.023437h-87.257813c.292969-24.828125 21.402344-44.640625 46.453125-43.023437zm-66.117187 58.023437c-1.320313 1.644531-2.875 3.109375-4.648438 4.382813-11.457031 8.207031-15.320312 23.441406-9.164062 36.117187h-50.320313c5.804688-11.964843 3.371094-26.460937-9.847656-36.625-1.5-1.152343-2.828125-2.457031-3.964844-3.875zm-151.648438-72.1875v-14.113281c0-1.101562.898438-2 2-2h16.820313c1.105469 0 2 .898438 2 2v14.113281c-6.75-1.214843-13.777344-1.234375-20.542969-.046875-.09375.015625-.183594.03125-.277344.046875zm13.238282 14.164063c22.574218 1.453125 40.535156 20.148437 40.800781 43.023437h-87.257813c.292969-24.914062 21.488282-44.628906 46.457032-43.023437zm-46.460938 130.292968c.25-1.863281-1.351562-9.289062 4.855469-16.769531h77.554687c6.195313 7.464844 4.613282 14.933594 4.855469 16.769531 0 9.664063-7.863281 17.527344-17.527344 17.527344h-52.207031c-9.667969 0-17.53125-7.863281-17.53125-17.527344zm413.53125 32.527344v22.703125h-299.046875c-4.140625 0-7.5 3.355469-7.5 7.5 0 4.140625 3.359375 7.5 7.5 7.5h299.046875v213.296875h-20.230469c2.742188-4.59375 4.320313-9.957031 4.320313-15.6875v-78.820312c0-29.367188-22.714844-42.316406-27.019532-47.609375v-15.238281c5.117188-2.359376 8.683594-7.542969 8.683594-13.542969v-17.011719c0-8.21875-6.6875-14.902344-14.90625-14.902344h-45.058594c-8.21875 0-14.90625 6.683594-14.90625 14.902344v17.011719c0 6 3.5625 11.183593 8.683594 13.542969v15.238281c-7.953125 7.789062-13.867187 11.453125-19.519531 20.796875-5.652344-9.34375-11.574219-13.007813-19.523437-20.796875v-15.238281c5.121093-2.359376 8.683593-7.542969 8.683593-13.542969v-17.011719c0-8.21875-6.6875-14.902344-14.90625-14.902344h-45.058593c-8.21875 0-14.902344 6.683594-14.902344 14.902344v17.011719c0 6 3.558594 11.183593 8.679687 13.542969v15.238281c-7.9375 7.777343-13.863281 11.449219-19.519531 20.796875-5.648438-9.339844-11.566406-13.007813-19.519531-20.796875v-15.238281c5.121093-2.359376 8.679687-7.542969 8.679687-13.542969v-17.011719c0-8.21875-6.683594-14.90625-14.902344-14.90625h-45.058593c-8.21875 0-14.90625 6.6875-14.90625 14.90625v17.011719c0 6 3.5625 11.183593 8.683593 13.542969v15.238281c-7.949218 7.785156-13.871093 11.457031-19.523437 20.796875-5.648437-9.34375-11.578125-13.019532-19.519531-20.796875v-15.238281c5.121094-2.359376 8.683594-7.542969 8.683594-13.542969v-17.011719c0-8.21875-6.6875-14.90625-14.90625-14.90625h-45.058594c-8.21875 0-14.90625 6.6875-14.90625 14.90625v17.011719c0 6 3.5625 11.183593 8.683594 13.542969v15.238281c-4.414063 5.429687-27.019532 18.191406-27.019532 47.609375v78.820312c0 5.726563 1.578125 11.09375 4.320313 15.6875h-20.230469v-213.296875h105.953125c4.144531 0 7.5-3.359375 7.5-7.5 0-4.144531-3.355469-7.5-7.5-7.5h-105.953125v-22.703125zm-402.089844 235.3125v-78.820312c0-10.21875 4.304688-20.058594 11.8125-26.996094l12.796875-11.824219c3.976563-3.675781 1.789063-7.566406 2.410157-22.664062h27.503906c.605468 14.730469-1.574219 18.984375 2.410156 22.664062l12.800781 11.824219c7.503907 6.9375 11.808594 16.773438 11.808594 26.996094v78.820312c0 8.652344-7.035156 15.6875-15.683594 15.6875h-50.171875c-8.652344 0-15.6875-7.035156-15.6875-15.6875zm18.335938-155.304687v-16.820313h44.871094v16.820313zm78.207031 155.304687v-78.820312c0-27.136719 27.023437-34.644532 27.023437-44.328125v-17.15625h27.503907c.601562 14.632812-1.578125 18.980469 2.410156 22.667969l12.796875 11.824218c7.507812 6.933594 11.8125 16.773438 11.8125 26.992188v78.820312c0 8.652344-7.035156 15.6875-15.6875 15.6875h-50.171875c-8.648437 0-15.6875-7.035156-15.6875-15.6875zm18.339844-155.304687v-16.820313h44.867187v16.820313zm78.207031 155.304687v-78.820312c0-27.132813 27.019531-34.644532 27.019531-44.328125v-17.15625h27.503907c.605468 14.640625-1.578126 18.980469 2.410156 22.667969l12.800781 11.824218c7.503906 6.933594 11.8125 16.773438 11.8125 26.992188v78.820312c0 8.652344-7.039063 15.6875-15.6875 15.6875h-50.171875c-8.652344 0-15.6875-7.035156-15.6875-15.6875zm18.339844-155.304687v-16.820313h44.867187v16.820313zm78.207031 155.304687v-78.820312c0-10.21875 4.304687-20.058594 11.8125-26.996094l12.796875-11.824219c3.976562-3.675781 1.789062-7.570312 2.410156-22.664062h27.503906v17.15625c0 5.421875 4.34375 6.445312 15.207032 17.332031 7.507812 6.9375 11.8125 16.773438 11.8125 26.996094v78.820312c0 8.648438-7.035156 15.6875-15.6875 15.6875h-50.171875c-8.648438 0-15.683594-7.035156-15.683594-15.6875zm18.335937-155.304687v-16.820313h44.871094v16.820313zm-363.382812-273.105469h9.5v481.800781h-9.5zm24.5 459.097656h433v22.703125h-433zm457.5 22.703125h-9.5v-481.800781h9.5zm0 0"/></svg>