<?xml version="1.0" encoding="UTF-8"?>
<svg xmlns="http://www.w3.org/2000/svg" xmlns:xlink="http://www.w3.org/1999/xlink" width="512" height="512" viewBox="0 0 60 60" version="1.1"><!-- Generator: Sketch 51.3 (57544) - http://www.bohemiancoding.com/sketch --><title>029 - Pints on Tray</title><desc>Created with Sketch.</desc><defs/><g id="Page-1" stroke="none" stroke-width="1" fill="none" fill-rule="evenodd"><g id="029---Pints-on-Tray" fill="#000000" fill-rule="nonzero"><path d="M51.583,41.257 L52.994,28.106 C53.0225246,27.8292561 52.9344714,27.5531388 52.751,27.344 C52.9115115,26.9138849 52.9957742,26.4590698 53,26 C53,23.790861 51.209139,22 49,22 C48.886,22 48.772,22 48.66,22.014 C47.9751755,20.0515832 46.3221487,18.5843359 44.292336,18.1372064 C42.2625234,17.690077 40.1459958,18.3269627 38.7,19.82 C38.1013683,17.5582119 36.6445554,15.6189037 34.639,14.414 L34.05,5.7 C34.6397992,5.3361846 34.9992359,4.6929821 35,4 L35,3 C35,1.34314575 33.6568542,1.01453063e-16 32,0 L28,0 C26.3431458,-1.01453063e-16 25,1.34314575 25,3 L25,4 C25.0007641,4.6929821 25.3602008,5.3361846 25.95,5.7 L25.357,14.423 C23.3500855,15.6224751 21.8937755,17.5613493 21.301,19.823 C20.1112333,18.5986652 18.456247,17.939133 16.7504982,18.0095696 C15.0447493,18.0800062 13.4497738,18.8737411 12.365,20.192 C10.3015219,19.594844 8.087687,20.3881392 6.87309153,22.1599449 C5.65849606,23.9317505 5.71690989,26.2827014 7.018,27.992 C7.01153922,28.0300365 7.00753095,28.0684491 7.006,28.107 L8.417,41.257 C2.91,43.3 0,45.97 0,49 C0,55.885 15.253,60 30,60 C44.747,60 60,55.885 60,49 C60,45.97 57.09,43.3 51.583,41.257 Z M11,30 L11,33 C11,34.6568542 12.3431458,35.9999999 14,35.9999999 C15.6568542,35.9999999 17,34.6568542 17,33 L17,30 C18.1887029,30.0019485 19.3511975,29.6507637 20.34,28.991 C21.5733494,30.0983352 23.3675501,30.3161168 24.83,29.536 L22.576,50.545 C22.5060951,50.8289526 22.241665,51.0211502 21.95,51 L12.05,51 C11.757737,51.0209578 11.4930844,50.827753 11.424,50.543 L9.182,29.643 C9.76015785,29.8752668 10.376942,29.9963845 11,30 Z M40,36 C41.6568542,36 43,34.6568542 43,33 L43,30 C44.1887029,30.0019485 45.3511975,29.6507637 46.34,28.991 C47.5733494,30.0983352 49.3675501,30.3161168 50.83,29.536 L48.576,50.545 C48.5060951,50.8289526 48.241665,51.0211502 47.95,51 L38.05,51 C37.757737,51.0209578 37.4930844,50.827753 37.424,50.543 L35.182,29.643 C35.7601579,29.8752668 36.376942,29.9963845 37,30 L37,33 C37,34.6568542 38.3431458,36 40,36 Z M26.576,32 L33.424,32 L34.711,44 L25.289,44 L26.576,32 Z M33.018,27.991 C33.0115392,28.0290365 33.0075309,28.0674491 33.006,28.106 L33.206,30 L26.791,30 L26.991,28.106 C27.0195246,27.8292561 26.9314714,27.5531388 26.748,27.344 C27.167338,26.2420366 27.0551783,25.0082801 26.444,24 L32.1,24 C31.811894,25.4003724 32.1465394,26.856828 33.017,27.991 L33.018,27.991 Z M21.95,53 C23.2679149,53.0331667 24.3971891,52.0637361 24.564,50.756 L25.075,46 L34.926,46 L35.436,50.755 C35.6023419,52.0631345 36.7317477,53.03311 38.05,53 L42.359,53 C38.2763829,53.6931472 34.1409473,54.0277565 30,54 C25.8590527,54.0277565 21.7236171,53.6931472 17.641,53 L21.95,53 Z M39.584,21.921 C40.4530179,20.4907508 42.1214029,19.7537478 43.7639326,20.0745299 C45.4064622,20.3953121 46.6749612,21.7058816 46.942,23.358 C46.9898981,23.6573458 47.1710032,23.918803 47.4344056,24.0688743 C47.6978079,24.2189456 48.0150672,24.2414274 48.297,24.13 C48.5210822,24.0428756 48.7595795,23.9987722 49,24 C50.1045695,24 51,24.8954305 51,26 C51,27.1045695 50.1045695,28 49,28 C48.3165457,28.003292 47.6796663,27.6540477 47.315,27.076 C47.1550218,26.8223244 46.8896356,26.6538427 46.592,26.617 C46.2940305,26.5816151 45.9957546,26.6805518 45.778,26.887 C45.0308953,27.6034745 44.0351305,28.0024256 43,28 C42.7356817,28.0022388 42.4718719,27.9764277 42.213,27.923 C41.9173387,27.858545 41.6083929,27.9314378 41.3727245,28.1212547 C41.1370562,28.3110717 41.0000158,28.5973946 41,28.9 L41,33 C41,33.5522847 40.5522847,34 40,34 C39.4477153,34 39,33.5522847 39,33 L39,28.87 C39.0001317,28.5568156 38.8535314,28.2616577 38.6039061,28.0725238 C38.3542807,27.8833898 38.0304648,27.822127 37.729,27.907 C37.4914284,27.9713537 37.2461191,28.0026483 37,28 C35.3431458,28 34.0000001,26.6568542 34.0000001,25 C34.0000001,23.3431458 35.3431458,22 37,22 C37.4448853,21.9982135 37.8842172,22.0988081 38.284,22.294 C38.7484589,22.5259763 39.3131906,22.3639417 39.584,21.921 Z M27,3 C27,2.44771525 27.4477153,2 28,2 L32,2 C32.5522847,2 33,2.44771525 33,3 L33,4 L27,4 L27,3 Z M26.78,15.888 C26.806,15.875 26.821,15.851 26.845,15.836 C26.9150158,15.7926533 26.9794907,15.7409391 27.037,15.682 C27.0736705,15.640277 27.1071011,15.5958144 27.137,15.549 C27.1762006,15.4938668 27.2097056,15.4348981 27.237,15.373 C27.2608483,15.3112886 27.2782736,15.2472839 27.289,15.182 C27.3022375,15.14485 27.3126014,15.1067378 27.32,15.068 L27.935,6 L32.065,6 L32.682,15.068 C32.6898599,15.1082702 32.7002132,15.1480133 32.713,15.187 C32.7229987,15.2470355 32.7387376,15.3059725 32.76,15.363 C32.787081,15.4253202 32.8205961,15.4846419 32.86,15.54 C32.8891729,15.5885629 32.9226401,15.634413 32.96,15.677 C33.0122857,15.7289599 33.0699425,15.7752194 33.132,15.815 C33.1602046,15.841162 33.1902848,15.8652262 33.222,15.887 C34.8826748,16.7510206 36.1280822,18.2442129 36.68,20.033 C35.23337,20.1242104 33.8987227,20.8426699 33.026,22 L23.75,22 C23.6647525,22.005681 23.5806609,22.0228357 23.5,22.051 C23.3369186,22.0237061 23.1722405,22.0070045 23.007,22.001 C23.0355621,19.4218497 24.4873206,17.0697163 26.78,15.888 Z M11,22 C11.4448853,21.9982135 11.8842172,22.0988081 12.284,22.294 C12.7484589,22.5259763 13.3131906,22.3639417 13.584,21.921 C14.4530179,20.4907508 16.1214029,19.7537478 17.7639326,20.0745299 C19.4064622,20.3953121 20.6749612,21.7058816 20.942,23.358 C20.9898981,23.6573458 21.1710032,23.918803 21.4344056,24.0688743 C21.6978079,24.2189456 22.0150672,24.2414274 22.297,24.13 C22.5210822,24.0428756 22.7595795,23.9987722 23,24 C24.1045695,24 25,24.8954305 25,26 C25,27.1045695 24.1045695,28 23,28 C22.3165457,28.003292 21.6796663,27.6540477 21.315,27.076 C21.1550218,26.8223244 20.8896356,26.6538427 20.592,26.617 C20.2940449,26.5817569 19.9958278,26.6806741 19.778,26.887 C19.0308953,27.6034745 18.0351305,28.0024256 17,28 C16.7356817,28.0022388 16.4718719,27.9764277 16.213,27.923 C15.9173387,27.858545 15.6083929,27.9314378 15.3727245,28.1212547 C15.1370562,28.3110717 15.0000158,28.5973946 15,28.9 L15,33 C15,33.5522847 14.5522847,34 14,34 C13.4477153,34 13,33.5522847 13,33 L13,28.87 C13.0001317,28.5568156 12.8535314,28.2616577 12.6039061,28.0725238 C12.3542807,27.8833898 12.0304648,27.822127 11.729,27.907 C11.4914284,27.9713537 11.2461191,28.0026483 11,28 C9.34314579,28 8.00000009,26.6568542 8.00000009,25 C8.00000009,23.3431458 9.34314579,22 11,22 Z M30,58 C16.757,58 2,54.3 2,49 C2,47.009 4.4,44.966 8.637,43.312 L9.431,50.712 C7.291,49.812 6.142,48.972 5.931,48.551 C5.77693397,48.2205574 5.45523647,48.0001521 5.09145675,47.9758018 C4.72767702,47.9514515 4.37947452,48.1270158 4.18274262,48.433977 C3.98601072,48.7409382 3.97193162,49.1306427 4.146,49.451 C5.3,51.739 14.067,56 30,56 C45.933,56 54.7,51.739 55.856,49.458 C56.084324,48.9682881 55.8823482,48.38577 55.3998817,48.1425096 C54.9174152,47.8992491 54.3289672,48.0832343 54.071,48.558 C53.858,48.979 52.709,49.822 50.571,50.719 L51.365,43.319 C55.6,44.966 58,47.009 58,49 C58,54.3 43.243,58 30,58 Z" id="Shape"/><path d="M27,21.1 C27.5522847,21.1 28,20.6522847 28,20.1 C27.9738832,19.8258149 28.0722548,19.5543912 28.267977,19.3606068 C28.4636993,19.1668224 28.7360883,19.0711563 29.01,19.1 C29.5622847,19.0972386 30.0077614,18.6472847 30.005,18.095 C30.0022386,17.5427153 29.5522847,17.0972386 29,17.1 C28.1973844,17.0765263 27.4206079,17.3850527 26.8528303,17.9528303 C26.2850527,18.5206079 25.9765263,19.2973844 26,20.1 C26,20.6522847 26.4477153,21.1 27,21.1 Z" id="Shape"/><path d="M19,45 C20.6568542,45 22,43.6568542 22,42 C22,40.3431458 20.6568542,39 19,39 C17.3431458,39 16,40.3431458 16,42 C16,43.6568542 17.3431458,45 19,45 Z M19,41 C19.5522847,41 20,41.4477153 20,42 C20,42.5522847 19.5522847,43 19,43 C18.4477153,43 18,42.5522847 18,42 C18,41.4477153 18.4477153,41 19,41 Z" id="Shape"/><circle id="Oval" cx="15" cy="47" r="1"/><circle id="Oval" cx="21" cy="34" r="1"/><circle id="Oval" cx="14" cy="39" r="1"/><path d="M45,45 C46.6568542,45 48,43.6568542 48,42 C48,40.3431458 46.6568542,39 45,39 C43.3431458,39 42,40.3431458 42,42 C42,43.6568542 43.3431458,45 45,45 Z M45,41 C45.5522847,41 46,41.4477153 46,42 C46,42.5522847 45.5522847,43 45,43 C44.4477153,43 44,42.5522847 44,42 C44,41.4477153 44.4477153,41 45,41 Z" id="Shape"/><circle id="Oval" cx="41" cy="47" r="1"/><circle id="Oval" cx="47" cy="34" r="1"/><circle id="Oval" cx="40" cy="39" r="1"/></g></g></svg>
